<svg width="355" height="331" viewBox="0 0 355 331" fill="none" xmlns="http://www.w3.org/2000/svg">
<path d="M15.7202 34.7892C14.7202 30.5203 15.1602 26.9387 17.0602 24.0154C18.9602 21.092 22.0602 19.1754 26.4702 18.2074C30.8802 17.2394 34.6902 17.6266 37.6702 19.427C40.6502 21.2275 42.6702 24.267 43.6702 28.4294C44.3762 30.9985 44.4345 33.6942 43.8402 36.2896C43.2588 38.4451 42.0304 40.3854 40.3102 41.8653C38.267 43.5304 35.8147 44.6573 33.1902 45.1371C30.6175 45.7983 27.9236 45.8877 25.3102 45.3985C23.0385 44.8641 20.9838 43.6842 19.4102 42.0105C17.5302 39.9694 16.2553 37.4743 15.7202 34.7892ZM24.0602 32.9887C24.6802 35.6217 25.6302 37.4028 26.9102 38.3321C27.5709 38.7586 28.3139 39.0513 29.0945 39.1927C29.8752 39.334 30.6772 39.3211 31.4525 39.1548C32.2279 38.9884 32.9604 38.6719 33.6062 38.2245C34.2519 37.777 34.7975 37.2078 35.2102 36.551C35.9302 35.2054 35.9402 33.0662 35.2602 30.1525C34.6802 27.6938 33.7435 26.0094 32.4502 25.0995C31.799 24.6471 31.0514 24.3418 30.2622 24.2061C29.473 24.0704 28.6625 24.1078 27.8902 24.3154C27.1172 24.4556 26.3872 24.7636 25.755 25.2163C25.1227 25.669 24.6048 26.2546 24.2402 26.929C23.5002 28.352 23.4302 30.288 24.0602 32.9887Z" fill="#263238"/>
<path d="M47.5904 31.5948C47.2352 30.2756 47.1718 28.8987 47.4045 27.5542C47.6371 26.2097 48.1605 24.9279 48.9404 23.7927C49.8147 22.5868 50.9264 21.5598 52.2117 20.7707C53.4971 19.9817 54.9307 19.4461 56.4304 19.1947C60.3437 18.3364 63.5571 18.7849 66.0704 20.5403C68.1856 22.1274 69.6236 24.4124 70.1104 26.9598C70.5973 29.5072 70.099 32.139 68.7104 34.3536C67.1504 36.6574 64.6104 38.1933 61.0904 38.9613C58.3785 39.6952 55.4852 39.4687 52.9304 38.3224C51.5643 37.6761 50.3712 36.7324 49.4448 35.5652C48.5184 34.398 47.8837 33.0391 47.5904 31.5948ZM55.1004 29.9202C55.3027 31.2729 55.9851 32.5152 57.0304 33.434C57.4448 33.7376 57.9225 33.9502 58.4303 34.0571C58.9381 34.164 59.4638 34.1626 59.971 34.053C60.4782 33.9433 60.9546 33.7282 61.3673 33.4224C61.7799 33.1165 62.1188 32.7274 62.3604 32.2821C62.884 30.9819 62.9334 29.5476 62.5004 28.2165C62.29 26.8955 61.6154 25.6852 60.5904 24.7898C60.1926 24.4776 59.7259 24.2584 59.2264 24.1493C58.7269 24.0402 58.2081 24.044 57.7104 24.1606C57.1915 24.2647 56.704 24.4818 56.2847 24.7954C55.8654 25.109 55.5254 25.511 55.2904 25.9707C54.7519 27.2252 54.6846 28.6227 55.1004 29.9202Z" fill="#263238"/>
<path d="M77.5802 42.4558L71.4502 16.3198L78.4502 14.771L79.1102 17.5685C79.604 16.4528 80.3212 15.4428 81.2202 14.5967C82.2068 13.7861 83.385 13.2241 84.6502 12.9608C85.8193 12.653 87.0496 12.6353 88.2277 12.9094C89.4057 13.1834 90.4933 13.7405 91.3902 14.529C93.3667 16.3174 94.7074 18.6657 95.2202 21.2372C95.9602 24.3832 95.7402 26.9581 94.5802 28.9812C94.0285 29.9485 93.266 30.7881 92.3456 31.4416C91.4253 32.0952 90.369 32.5471 89.2502 32.7661C88.1722 33.0135 87.055 33.0562 85.9602 32.8919C84.9102 32.7139 83.9094 32.3283 83.0202 31.7594L85.1402 40.7908L77.5802 42.4558ZM81.1902 24.1993C81.3739 25.4083 81.9981 26.5138 82.9502 27.3162C83.332 27.5992 83.775 27.795 84.2461 27.8888C84.7171 27.9827 85.2039 27.9723 85.6702 27.8583C86.1032 27.7743 86.5098 27.593 86.8572 27.329C87.2046 27.0651 87.4831 26.7258 87.6702 26.3386C88.0954 25.1271 88.0954 23.8136 87.6702 22.6021C87.4874 21.387 86.8846 20.2678 85.9602 19.427C85.6173 19.1513 85.2135 18.9556 84.7801 18.8549C84.3466 18.7542 83.895 18.7512 83.4602 18.8462C83.0007 18.9423 82.5696 19.1375 82.1991 19.4174C81.8285 19.6974 81.5281 20.0547 81.3202 20.4628C80.8307 21.656 80.7847 22.9769 81.1902 24.1993Z" fill="#263238"/>
<path d="M98.4303 24.7704L105.71 22.4569C106.097 23.1381 106.7 23.6811 107.43 24.0057C108.216 24.2259 109.047 24.2434 109.842 24.0567C110.636 23.8699 111.367 23.4852 111.96 22.9409C112.126 22.7701 112.247 22.5627 112.311 22.3366C112.376 22.1106 112.382 21.8728 112.33 21.6438C112.27 21.3817 112.13 21.143 111.929 20.9584C111.728 20.7739 111.474 20.6518 111.2 20.608C110.07 20.4879 108.93 20.4879 107.8 20.608C105.904 20.7641 103.997 20.7641 102.1 20.608C100.99 20.452 99.9491 19.9919 99.1003 19.2818C98.1948 18.5232 97.5693 17.4996 97.3185 16.366C97.0677 15.2324 97.2052 14.0506 97.7103 12.9995C98.2935 11.8748 99.1998 10.9369 100.32 10.2988C101.915 9.42159 103.648 8.80355 105.45 8.46927C107.17 8.0174 108.949 7.80873 110.73 7.84975C111.849 7.91948 112.934 8.25171 113.89 8.81775C114.91 9.48338 115.775 10.3471 116.43 11.3539L109.43 13.59C109.169 13.0856 108.734 12.6852 108.2 12.4574C107.471 12.2048 106.68 12.1711 105.93 12.3606C105.268 12.45 104.654 12.7456 104.18 13.2028C104.03 13.3586 103.921 13.5477 103.864 13.7536C103.806 13.9594 103.802 14.1758 103.85 14.3838C103.904 14.6126 104.029 14.8203 104.208 14.9792C104.386 15.1382 104.61 15.2411 104.85 15.2743C105.968 15.3999 107.099 15.3771 108.21 15.2066C110.139 14.936 112.095 14.91 114.03 15.1291C115.248 15.2956 116.388 15.8037 117.31 16.5908C118.144 17.3228 118.724 18.2863 118.97 19.3496C119.226 20.4897 119.133 21.6775 118.7 22.7666C118.172 24.0561 117.251 25.1598 116.06 25.932C114.306 27.0419 112.341 27.8021 110.28 28.1681C106.714 28.9554 104.047 29.0231 102.28 28.3714C100.559 27.706 99.1764 26.4128 98.4303 24.7704Z" fill="#263238"/>
<path d="M122.85 0.831757H131.06V6.93016L129.55 19.1947H124.47L122.85 6.94952V0.831757ZM123.25 21.0436H130.91V27.6066H123.25V21.0436Z" fill="#263238"/>
<path d="M57.6797 84.0895H57.4998C52.9998 82.3955 50.3098 80.7499 48.9098 78.7655C47.8139 78.9665 46.6802 78.817 45.6798 78.3395C44.5079 77.7844 43.5357 76.9007 42.8898 75.8034C42.5502 76.0556 42.1503 76.2207 41.7273 76.2833C41.3042 76.3459 40.8716 76.304 40.4698 76.1615C39.2373 75.7152 38.1857 74.8974 37.4698 73.8287C37.0219 74.1516 36.4653 74.3001 35.9098 74.2449C32.9098 74.0126 28.9098 68.282 28.6198 62.1836C28.6168 62.0549 28.6649 61.93 28.7542 61.8346C28.8435 61.7391 28.9671 61.6805 29.0998 61.6706C29.1654 61.668 29.231 61.678 29.2927 61.6999C29.3544 61.7219 29.411 61.7554 29.4593 61.7985C29.5076 61.8417 29.5466 61.8936 29.5741 61.9514C29.6017 62.0092 29.6172 62.0716 29.6198 62.1352C29.8998 67.9432 33.7298 73.1027 35.9998 73.2769C36.1649 73.2949 36.3321 73.281 36.4917 73.2362C36.6513 73.1913 36.8002 73.1163 36.9298 73.0155C36.1477 71.6354 35.6565 70.1187 35.4849 68.5534C35.3132 66.988 35.4644 65.4053 35.9298 63.897C36.7898 60.993 37.5498 59.8507 38.4698 60.025C40.1898 60.4412 39.9598 66.801 39.0498 70.9537C38.9119 71.7027 38.6267 72.4191 38.2098 73.0639C38.7993 74.0208 39.6892 74.7704 40.7498 75.2032C41.0324 75.3074 41.34 75.3309 41.6361 75.2708C41.9321 75.2107 42.2041 75.0697 42.4198 74.8644C41.6398 72.9962 41.4198 70.4407 42.5398 67.1882C43.9398 62.8999 44.5398 62.7838 44.8498 62.7063C44.9664 62.6826 45.0874 62.6899 45.2001 62.7274C45.3128 62.7649 45.4129 62.8312 45.4898 62.9193C46.4198 63.9357 45.3098 70.5955 44.1498 73.8867C44.0139 74.2828 43.8257 74.6603 43.5898 75.0096C44.1263 76.0566 45.0003 76.906 46.0798 77.4296C46.7878 77.7629 47.575 77.9066 48.3598 77.8459C48.2698 77.6619 48.1898 77.478 48.1098 77.2844C47.3198 75.2032 47.7098 72.8123 49.2998 69.947C50.3498 68.0594 51.2098 67.1688 52.0098 67.1688C52.2221 67.1716 52.4292 67.2332 52.6065 67.3464C52.7837 67.4597 52.9237 67.6198 53.0098 67.8077C53.8798 69.3662 53.2498 74.5063 51.5298 77.0618C51.127 77.6476 50.5669 78.1161 49.9098 78.417C51.2498 80.1207 53.7998 81.6211 57.9098 83.1505C57.9714 83.172 58.0279 83.2052 58.0761 83.2483C58.1242 83.2913 58.1629 83.3432 58.1899 83.401C58.217 83.4587 58.2318 83.5211 58.2335 83.5845C58.2351 83.6479 58.2237 83.711 58.1998 83.77C58.1609 83.8709 58.0891 83.9566 57.9952 84.0143C57.9013 84.072 57.7905 84.0984 57.6797 84.0895ZM51.9998 68.1465C51.9998 68.1465 51.4298 68.1465 50.1698 70.4213C48.7198 73.0155 48.3498 75.1548 49.0398 76.9553C49.1234 77.1782 49.2237 77.395 49.3398 77.6039C49.8814 77.3872 50.3419 77.0157 50.6598 76.5391C52.0598 74.4675 52.7298 70.2083 52.2098 68.5434C52.1398 68.2046 51.9998 68.1465 51.9998 68.1465ZM44.8198 64.0712C44.2784 65.1733 43.8303 66.3161 43.4798 67.4883C42.7128 69.5198 42.5806 71.7249 43.0998 73.8287L43.1898 73.577C44.2399 70.5087 44.7997 67.3031 44.8498 64.0712H44.8198ZM38.2398 61.022C38.0698 61.1672 37.5798 61.7771 36.8898 64.139C36.0737 66.7897 36.3311 69.6418 37.6098 72.1153C37.8149 71.6825 37.966 71.2276 38.0598 70.7601C39.1298 66.0072 38.8298 61.7093 38.2698 61.022H38.2398Z" fill="#263238"/>
<path d="M95.6997 134.832C94.101 134.847 92.527 134.449 91.1397 133.68C91.0255 133.614 90.9427 133.506 90.9091 133.382C90.8755 133.257 90.8936 133.124 90.9597 133.012C90.9927 132.958 91.0366 132.91 91.0888 132.872C91.1411 132.834 91.2006 132.807 91.264 132.791C91.3273 132.776 91.3932 132.773 91.4577 132.783C91.5222 132.792 91.5841 132.814 91.6397 132.848C95.2097 134.871 99.8197 133.457 100.77 131.976C100.838 131.884 100.887 131.778 100.913 131.667C100.939 131.555 100.941 131.44 100.92 131.328C99.0941 131.429 97.2865 130.931 95.7897 129.915C93.2397 128.375 93.0397 127.911 93.0597 127.543C93.0646 127.437 93.0988 127.335 93.1586 127.246C93.2184 127.158 93.3017 127.086 93.3997 127.04C94.3997 126.556 98.9097 128.559 100.79 129.76C101.015 129.905 101.223 130.073 101.41 130.263C102.148 130.101 102.814 129.714 103.31 129.16C103.589 128.842 103.79 128.469 103.9 128.066H103.7C102.1 128.221 100.5 127.553 98.7897 126.023C97.6097 124.978 97.1597 124.252 97.3097 123.681C97.3551 123.52 97.4471 123.376 97.5747 123.264C97.7023 123.153 97.8602 123.079 98.0297 123.051C99.4097 122.713 102.83 124.126 104.22 125.607C104.53 125.929 104.75 126.322 104.86 126.749C106.17 126.159 107.55 124.813 109.18 122.616C109.218 122.564 109.266 122.519 109.322 122.485C109.377 122.451 109.44 122.427 109.505 122.417C109.57 122.406 109.636 122.408 109.701 122.422C109.765 122.436 109.826 122.463 109.88 122.5C109.987 122.575 110.059 122.688 110.082 122.815C110.104 122.941 110.075 123.071 110 123.177C108.11 125.733 106.53 127.185 104.95 127.775C104.868 128.491 104.565 129.166 104.08 129.711C103.504 130.359 102.747 130.833 101.9 131.076C101.947 131.307 101.947 131.545 101.899 131.776C101.851 132.007 101.756 132.226 101.62 132.422C100.78 133.806 98.3597 134.832 95.6997 134.832ZM94.8097 128.114C95.1497 128.356 95.6297 128.676 96.3197 129.082C97.395 129.784 98.6305 130.223 99.9197 130.36C98.3102 129.426 96.5958 128.672 94.8097 128.114ZM98.2997 124C98.587 124.524 98.9858 124.982 99.4697 125.346C100.95 126.672 102.3 127.282 103.6 127.127H103.92C103.849 126.826 103.697 126.549 103.48 126.323C102.08 124.794 98.9997 123.845 98.2997 124Z" fill="#263238"/>
<path d="M108.94 133.506L93.3599 136.245L79.2099 61.4963L49.1499 66.7816L0.149902 150.998L5.4099 178.789L68.2599 167.744L72.5599 190.473L102.62 185.168L98.3199 162.439L113.9 159.7L108.94 133.506ZM30.0899 147.416L56.0899 103.304L63.3399 141.579L30.0899 147.416Z" fill="#0073C8"/>
<path d="M234.43 56.424C233.957 51.725 232.882 47.1012 231.23 42.659C229.531 38.4039 227.17 34.4247 224.23 30.8591C220.75 26.7109 216.427 23.2977 211.53 20.8306C206.197 17.9976 199.123 16.0261 190.31 14.9162C172.01 12.6059 157.75 15.7486 147.53 24.3445C137.31 32.9403 130.577 49.3963 127.33 73.7125C126.034 82.8001 125.699 91.9921 126.33 101.146C126.997 109.535 128.59 116.288 131.11 121.406C134.317 128.307 139.376 134.25 145.76 138.617C152.073 142.908 160.74 145.745 171.76 147.126C191.347 149.597 205.87 145.954 215.33 136.197C224.79 126.439 231.057 109.951 234.13 86.7321C235.496 76.6783 235.597 66.5012 234.43 56.424Z" fill="#0073C8"/>
<path d="M180.77 137.184C178.36 137.107 175.77 136.894 173.16 136.565C164 135.413 156.92 133.167 152.1 129.895C147.293 126.61 143.493 122.128 141.1 116.924L141.05 116.818C139.13 112.946 137.87 107.38 137.32 100.362C136.737 91.9316 137.046 83.4661 138.24 75.0967C141.81 48.2638 149.18 37.064 154.73 32.3983C161.21 26.9581 169.96 24.4994 181.46 24.8866C183.82 24.964 186.32 25.1673 188.89 25.4867C196.27 26.4547 202.12 28.0035 206.26 30.1912C209.837 31.9745 213.004 34.4409 215.57 37.4415C217.815 40.1516 219.619 43.1776 220.92 46.4149C222.249 50.0247 223.109 53.7802 223.48 57.5953C224.547 66.8395 224.449 76.1748 223.19 85.3962C220.42 106.247 215.06 120.902 207.27 128.956C201.49 134.919 192.82 137.668 180.76 137.223L180.77 137.184Z" fill="#263238"/>
<path d="M200.34 56.7047L200.47 53.036L198.14 52.3003C198.041 51.0595 197.833 49.829 197.52 48.6219L199.52 47.2086L198.18 43.7626L195.74 43.9562C195.166 42.8486 194.497 41.7898 193.74 40.7908L195 38.7483L192.4 36.067L190.22 37.1511C189.244 36.3393 188.201 35.6076 187.1 34.9634L187.45 32.6209L183.99 31.1011L182.41 32.9016C181.186 32.5178 179.932 32.2329 178.66 32.0498L178.07 29.7556L174.27 29.6298L173.52 31.8755C172.238 31.9748 170.967 32.1755 169.72 32.4757L168.25 30.5397L164.69 31.8271L164.89 34.189C163.746 34.7449 162.652 35.3925 161.62 36.125L159.52 34.8957L156.74 37.4028L157.86 39.5227C157.019 40.4663 156.266 41.4802 155.61 42.5526L153.19 42.1944L151.61 45.5437L153.48 47.0731C153.074 48.2582 152.779 49.4764 152.6 50.7128L150.22 51.2936L150.09 54.9526L152.42 55.6883C152.517 56.9326 152.725 58.1664 153.04 59.3764L151.04 60.78L152.38 64.2261L154.82 64.0325C155.388 65.1431 156.057 66.2024 156.82 67.1978L155.55 69.2403L158.15 71.9217L160.33 70.8472C161.305 71.6559 162.349 72.3844 163.45 73.0252L163.09 75.3678L166.55 76.8875L168.14 75.0967C169.367 75.4784 170.624 75.7601 171.9 75.9389L172.49 78.2427L176.28 78.3686L177.03 76.1131C178.315 76.0186 179.59 75.8178 180.84 75.513L182.29 77.449L185.85 76.1615L185.66 73.8093C186.8 73.2463 187.893 72.599 188.93 71.8733L191.03 73.093L193.81 70.5858L192.7 68.4659C193.538 67.5255 194.287 66.5148 194.94 65.4458L197.36 65.7942L198.94 62.445L197.08 60.9155C197.478 59.7322 197.769 58.5176 197.95 57.2855L200.34 56.7047ZM174.74 68.5821C171.778 68.4773 168.915 67.5256 166.511 65.8469C164.107 64.1683 162.272 61.838 161.235 59.1502C160.198 56.4624 160.007 53.5376 160.687 50.7449C161.366 47.9522 162.884 45.4169 165.05 43.4589C167.217 41.5009 169.934 40.208 172.859 39.7434C175.783 39.2788 178.785 39.6633 181.484 40.8485C184.183 42.0336 186.459 43.9662 188.024 46.4023C189.59 48.8384 190.375 51.6689 190.28 54.5364C190.217 56.4477 189.764 58.3281 188.948 60.0697C188.132 61.8112 186.969 63.3796 185.525 64.6846C184.081 65.9897 182.385 67.0059 180.534 67.6747C178.683 68.3436 176.714 68.6519 174.74 68.5821Z" fill="#0073C8"/>
<path opacity="0.3" d="M216.12 124.058L216.4 121.58L214.86 120.98C214.857 120.137 214.784 119.295 214.64 118.463L216.03 117.602L215.32 115.211H213.66C213.332 114.433 212.933 113.685 212.47 112.975L213.41 111.658L211.81 109.722L210.28 110.342C209.66 109.748 208.991 109.204 208.28 108.715L208.65 107.147L206.4 105.947L205.22 107.099C204.416 106.779 203.587 106.523 202.74 106.334L202.46 104.756L199.91 104.476L199.28 105.966C198.411 105.97 197.544 106.048 196.69 106.199L195.8 104.824L193.33 105.531V107.138C192.526 107.459 191.753 107.847 191.02 108.299L189.66 107.331L187.66 108.88L188.3 110.361C187.69 110.962 187.132 111.609 186.63 112.297L185.01 111.948L183.78 114.126L184.96 115.259C184.625 116.039 184.36 116.845 184.17 117.669L182.53 117.931L182.26 120.399L183.79 121.019C183.791 121.856 183.867 122.692 184.02 123.516L182.61 124.378L183.33 126.769H185C185.334 127.542 185.735 128.287 186.2 128.995L185.2 130.311L186.8 132.247L188.35 131.618C188.965 132.214 189.635 132.755 190.35 133.235L190 134.832L192.25 136.023L193.42 134.89C194.224 135.203 195.054 135.452 195.9 135.635L196.19 137.223L198.74 137.494L199.36 136.013C200.244 136.012 201.127 135.941 202 135.8L202.89 137.165L205.35 136.468V134.861C206.154 134.534 206.929 134.146 207.67 133.699L209.01 134.667L211.01 133.109L210.36 131.628C210.976 131.028 211.541 130.38 212.05 129.692L213.66 130.04L214.9 127.862L213.72 126.74C214.041 125.96 214.299 125.157 214.49 124.339L216.12 124.058ZM203.25 123.09C202.827 123.84 202.183 124.451 201.401 124.846C200.619 125.242 199.734 125.404 198.856 125.312C197.979 125.22 197.15 124.878 196.473 124.33C195.797 123.782 195.303 123.052 195.056 122.232C194.808 121.412 194.817 120.54 195.081 119.725C195.346 118.91 195.854 118.19 196.542 117.655C197.23 117.12 198.066 116.794 198.945 116.719C199.824 116.644 200.706 116.823 201.48 117.234C202.514 117.786 203.281 118.711 203.613 119.809C203.944 120.906 203.814 122.086 203.25 123.09Z" fill="#0073C8"/>
<path d="M230.29 82.2212L227.29 80.2271C226.995 79.1905 226.593 78.1852 226.09 77.2263L226.85 74.3223L222.53 69.8405L219.53 70.3826C218.578 69.8341 217.573 69.377 216.53 69.0177L214.68 65.9975L208.35 65.7942L206.29 68.6982C205.218 68.9797 204.179 69.369 203.19 69.8598L200.19 69.1145L195.56 73.3059L196.12 76.2099C195.545 77.127 195.073 78.1004 194.71 79.1139L191.6 80.9047L191.38 87.0322L194.38 89.0262C194.671 90.0705 195.073 91.0827 195.58 92.0464L194.82 94.9504L199.14 99.4322L202.14 98.8998C203.092 99.4475 204.097 99.9045 205.14 100.265L206.98 103.275L213.32 103.488L215.37 100.584C216.451 100.3 217.5 99.9109 218.5 99.4226L221.5 100.158L226.13 95.9765L225.58 93.0725C226.148 92.1521 226.621 91.1794 226.99 90.1685L230.1 88.3777L230.29 82.2212ZM210.56 91.5334C209.152 91.4866 207.791 91.0369 206.648 90.2411C205.504 89.4452 204.63 88.3391 204.136 87.0624C203.642 85.7858 203.551 84.3961 203.873 83.069C204.195 81.7419 204.916 80.5371 205.946 79.6069C206.975 78.6767 208.267 78.063 209.656 77.8432C211.046 77.6235 212.472 77.8077 213.754 78.3724C215.036 78.9372 216.116 79.8572 216.857 81.0161C217.599 82.1751 217.969 83.5208 217.92 84.8832C217.852 86.7089 217.039 88.4341 215.66 89.6807C214.28 90.9272 212.446 91.5935 210.56 91.5334Z" fill="white"/>
<path d="M252 33.3082L252.52 32.0982C252.873 31.9053 253.208 31.6817 253.52 31.4302H254.68L256.04 29.4942L255.6 28.4585C255.768 28.1135 255.902 27.7537 256 27.384L257 26.4934L256.58 24.2186L255.32 23.7153C255.122 23.372 254.891 23.0479 254.63 22.7473V21.6244L252.68 20.3079L251.6 20.7435C251.205 20.6089 250.796 20.518 250.38 20.4725L249.46 19.5045L247.12 19.911L246.59 21.1307C246.219 21.317 245.867 21.5374 245.54 21.789H244.39L243.03 23.725L243.47 24.7607C243.336 25.1442 243.242 25.5399 243.19 25.9417L242.19 26.8419L242.61 29.107L243.87 29.6104C244.061 29.9554 244.289 30.2799 244.55 30.5784V31.6916L246.55 33.0081L247.62 32.5822C248.02 32.708 248.432 32.7956 248.85 32.8435L249.77 33.8115L252 33.3082ZM247 27.0355C246.905 26.5305 246.968 26.0096 247.179 25.5388C247.39 25.0681 247.741 24.6686 248.187 24.3909C248.633 24.1133 249.154 23.9699 249.685 23.979C250.215 23.9882 250.73 24.1493 251.166 24.4421C251.601 24.735 251.937 25.1463 252.131 25.624C252.325 26.1017 252.368 26.6244 252.255 27.1259C252.142 27.6274 251.878 28.0852 251.496 28.4413C251.114 28.7974 250.632 29.0358 250.11 29.1264C249.411 29.245 248.693 29.0919 248.111 28.7004C247.528 28.3088 247.129 27.7105 247 27.0355Z" fill="#0073C8"/>
<path d="M224.61 26.8903L223.84 26.2611C225.49 24.28 227.529 22.635 229.84 21.4211L230.31 22.273C228.112 23.4311 226.175 25.0006 224.61 26.8903Z" fill="#0073C8"/>
<path d="M232.59 21.3824L232.2 20.4919C235.892 18.9385 239.931 18.3125 243.94 18.672L243.84 19.64C239.998 19.2895 236.127 19.889 232.59 21.3824Z" fill="#0073C8"/>
<path d="M230.7 28.081L229.88 27.5389C232.289 24.3896 235.795 22.1921 239.75 21.3534L239.94 22.3214C236.244 23.1026 232.964 25.1475 230.7 28.081Z" fill="#0073C8"/>
<path d="M164.34 121.28C164.204 121.276 164.074 121.22 163.98 121.125L161.89 119.034C160.824 118.941 159.77 118.753 158.74 118.473L155.47 119.867C155.398 119.905 155.317 119.925 155.235 119.925C155.153 119.925 155.072 119.905 155 119.867L149.52 116.353C149.449 116.308 149.392 116.246 149.353 116.173C149.315 116.1 149.296 116.019 149.3 115.937V112.491C148.631 111.681 148.042 110.812 147.54 109.896L144.73 108.851C144.651 108.821 144.582 108.773 144.527 108.71C144.473 108.648 144.436 108.573 144.42 108.493L143.12 102.259C143.103 102.179 143.107 102.097 143.131 102.019C143.156 101.941 143.2 101.87 143.26 101.814L145.42 99.7904C145.523 98.7599 145.717 97.7398 146 96.7412L144.56 93.5758C144.521 93.5061 144.5 93.4279 144.5 93.3484C144.5 93.2689 144.521 93.1906 144.56 93.1209L148.19 87.8162C148.235 87.7464 148.299 87.6897 148.375 87.6522C148.45 87.6147 148.535 87.5978 148.62 87.6033L152.18 87.6517C153.014 87.001 153.912 86.4304 154.86 85.948L155.95 83.2279C155.979 83.1525 156.027 83.0853 156.09 83.0328C156.153 82.9803 156.229 82.9442 156.31 82.9278L162.75 81.6694C162.832 81.6519 162.918 81.6551 162.998 81.6788C163.079 81.7026 163.152 81.746 163.21 81.805L165.3 83.8958C166.369 83.9902 167.426 84.1781 168.46 84.4573L171.72 83.0634C171.794 83.0252 171.876 83.0053 171.96 83.0053C172.044 83.0053 172.126 83.0252 172.2 83.0634L177.67 86.5772C177.739 86.6243 177.796 86.6864 177.836 86.7588C177.876 86.8311 177.898 86.9115 177.9 86.9934L177.84 90.4395C178.512 91.2491 179.105 92.1177 179.61 93.0338L182.41 94.0889C182.488 94.1168 182.557 94.1634 182.612 94.2243C182.666 94.2853 182.703 94.3586 182.72 94.4374L184.03 100.671C184.045 100.751 184.041 100.833 184.016 100.911C183.992 100.988 183.949 101.059 183.89 101.117L181.72 103.149C181.62 104.177 181.426 105.194 181.14 106.189L182.58 109.354C182.619 109.426 182.64 109.506 182.64 109.587C182.64 109.668 182.619 109.747 182.58 109.819L179 115.075C178.953 115.141 178.89 115.195 178.817 115.232C178.744 115.269 178.663 115.288 178.58 115.288L175.01 115.24C174.173 115.882 173.279 116.452 172.34 116.943L171.25 119.663C171.22 119.74 171.171 119.808 171.106 119.861C171.041 119.913 170.963 119.949 170.88 119.964L164.44 121.28H164.34ZM158.71 117.408C158.756 117.399 158.804 117.399 158.85 117.408C159.93 117.712 161.039 117.91 162.16 117.998C162.28 118.012 162.392 118.063 162.48 118.144L164.48 120.176L170.38 119.025L171.44 116.372C171.489 116.265 171.574 116.177 171.68 116.121C172.679 115.621 173.621 115.02 174.49 114.33C174.582 114.255 174.7 114.217 174.82 114.223L178.29 114.272L181.61 109.432L180.21 106.353C180.17 106.247 180.17 106.131 180.21 106.024C180.519 104.978 180.724 103.905 180.82 102.82C180.83 102.703 180.883 102.593 180.97 102.51L183.07 100.574L181.88 94.8633L179.15 93.8372C179.033 93.7959 178.936 93.7128 178.88 93.6049C178.361 92.6393 177.741 91.7278 177.03 90.8848C176.959 90.7963 176.92 90.6873 176.92 90.575V87.2064L171.92 83.9926L168.75 85.3478C168.637 85.387 168.513 85.387 168.4 85.3478C167.316 85.0449 166.204 84.8471 165.08 84.7574C164.96 84.7437 164.848 84.6927 164.76 84.6122L162.76 82.5794L156.86 83.741L155.81 86.432C155.768 86.543 155.686 86.6357 155.58 86.6934C154.577 87.1921 153.632 87.7924 152.76 88.4842C152.717 88.5219 152.666 88.5508 152.611 88.5691C152.556 88.5875 152.498 88.5948 152.44 88.5906L148.97 88.5422L145.64 93.3822L147.04 96.4605C147.072 96.5255 147.089 96.5966 147.089 96.6686C147.089 96.7406 147.072 96.8117 147.04 96.8767C146.744 97.8986 146.549 98.9456 146.46 100.003C146.451 100.121 146.397 100.231 146.31 100.313L144.21 102.249L145.41 107.96L148.13 108.986C148.251 109.035 148.351 109.124 148.41 109.238C148.926 110.197 149.542 111.102 150.25 111.939C150.324 112.026 150.363 112.136 150.36 112.249V115.617L155.36 118.831L158.54 117.476C158.592 117.444 158.65 117.421 158.71 117.408ZM163.62 114.272C161.213 114.27 158.852 113.636 156.787 112.439C154.722 111.241 153.031 109.525 151.893 107.472C150.756 105.418 150.214 103.105 150.326 100.777C150.438 98.45 151.2 96.1954 152.53 94.2534C153.802 92.3904 155.552 90.8788 157.608 89.8665C159.665 88.8543 161.957 88.376 164.262 88.4784C166.567 88.5809 168.804 89.2606 170.756 90.4511C172.708 91.6415 174.308 93.302 175.398 95.2701C176.488 97.2382 177.032 99.4465 176.977 101.679C176.921 103.912 176.268 106.092 175.081 108.007C173.894 109.922 172.214 111.506 170.205 112.604C168.196 113.702 165.927 114.277 163.62 114.272ZM153.37 94.7858C152.024 96.7517 151.31 99.0598 151.319 101.418C151.328 103.777 152.059 106.08 153.42 108.036C154.781 109.992 156.711 111.514 158.965 112.409C161.22 113.303 163.697 113.531 166.085 113.063C168.473 112.594 170.664 111.451 172.381 109.778C174.098 108.104 175.263 105.976 175.731 103.661C176.198 101.346 175.945 98.9494 175.006 96.7735C174.066 94.5976 172.48 92.7404 170.45 91.4366C169.104 90.5642 167.592 89.9586 166.002 89.6548C164.413 89.3509 162.777 89.3548 161.189 89.6662C159.601 89.9775 158.093 90.5903 156.751 91.469C155.408 92.3477 154.26 93.475 153.37 94.7858Z" fill="white"/>
<path d="M354.83 142.237L339.13 140.185L349.51 64.865L319.23 60.9155L245.78 126.372L241.92 154.376L305.21 162.643L302.05 185.555L332.33 189.505L335.49 166.602L351.19 168.654L354.83 142.237ZM275.41 131.86L314.17 97.6608L308.85 136.226L275.41 131.86Z" fill="#0073C8"/>
<path d="M323.13 188.788H323C322.87 188.765 322.755 188.693 322.68 188.587C322.605 188.482 322.576 188.353 322.6 188.227L346 64.381C346.026 64.2566 346.102 64.1469 346.21 64.0748C346.318 64.0027 346.45 63.9737 346.58 63.9938C346.709 64.0173 346.824 64.0895 346.899 64.1947C346.974 64.2999 347.003 64.4294 346.98 64.5552L323.63 188.391C323.607 188.503 323.544 188.604 323.453 188.676C323.362 188.749 323.248 188.788 323.13 188.788Z" fill="#263238"/>
<path d="M343.83 66.4622C343.822 66.6727 343.728 66.8715 343.569 67.0149C343.409 67.1583 343.197 67.2346 342.98 67.2269C342.763 67.2192 342.557 67.1282 342.409 66.9739C342.261 66.8196 342.182 66.6146 342.19 66.4041C342.198 66.1936 342.292 65.9947 342.451 65.8513C342.611 65.7079 342.823 65.6317 343.04 65.6394C343.257 65.6471 343.463 65.7381 343.611 65.8924C343.759 66.0467 343.838 66.2516 343.83 66.4622Z" fill="#263238"/>
<path d="M340.5 83.2086C340.494 83.3654 340.44 83.517 340.345 83.6442C340.25 83.7713 340.118 83.8684 339.966 83.9231C339.814 83.9777 339.649 83.9876 339.491 83.9513C339.333 83.9151 339.19 83.8343 339.08 83.7194C338.969 83.6044 338.897 83.4604 338.871 83.3054C338.845 83.1505 338.867 82.9916 338.935 82.8489C339.002 82.7062 339.112 82.586 339.25 82.5035C339.388 82.4211 339.548 82.3801 339.71 82.3858C339.817 82.3895 339.923 82.4138 340.021 82.4572C340.119 82.5005 340.208 82.5622 340.281 82.6386C340.354 82.7151 340.411 82.8047 340.449 82.9025C340.487 83.0003 340.504 83.1043 340.5 83.2086Z" fill="#263238"/>
<path d="M337.17 99.984C337.166 100.088 337.141 100.191 337.096 100.286C337.051 100.381 336.988 100.466 336.909 100.537C336.83 100.608 336.737 100.663 336.636 100.7C336.535 100.736 336.428 100.753 336.32 100.749C336.213 100.746 336.107 100.723 336.009 100.681C335.911 100.638 335.823 100.578 335.749 100.502C335.676 100.426 335.619 100.337 335.581 100.24C335.543 100.143 335.526 100.039 335.53 99.9356C335.532 99.8305 335.557 99.727 335.601 99.631C335.645 99.535 335.709 99.4484 335.788 99.3764C335.867 99.3043 335.96 99.2482 336.061 99.2113C336.163 99.1743 336.271 99.1573 336.38 99.1612C336.596 99.1712 336.8 99.263 336.948 99.4167C337.096 99.5705 337.175 99.7741 337.17 99.984Z" fill="#263238"/>
<path d="M330.61 117.408C330.588 117.602 330.492 117.782 330.342 117.912C330.192 118.042 329.997 118.114 329.795 118.114C329.593 118.114 329.399 118.042 329.248 117.912C329.098 117.782 329.002 117.602 328.98 117.408C328.967 117.297 328.979 117.185 329.014 117.078C329.049 116.972 329.107 116.874 329.184 116.791C329.261 116.708 329.355 116.641 329.46 116.596C329.566 116.55 329.68 116.527 329.795 116.527C329.91 116.527 330.024 116.55 330.13 116.596C330.235 116.641 330.329 116.708 330.406 116.791C330.483 116.874 330.541 116.972 330.576 117.078C330.611 117.185 330.623 117.297 330.61 117.408Z" fill="#263238"/>
<path d="M330.5 133.448C330.497 133.552 330.473 133.656 330.429 133.751C330.384 133.847 330.321 133.932 330.241 134.004C330.162 134.075 330.069 134.13 329.967 134.166C329.866 134.202 329.758 134.218 329.65 134.212C329.488 134.207 329.331 134.154 329.2 134.062C329.068 133.97 328.968 133.843 328.912 133.696C328.855 133.549 328.845 133.389 328.883 133.236C328.92 133.083 329.003 132.945 329.122 132.838C329.241 132.731 329.39 132.661 329.55 132.636C329.71 132.611 329.874 132.632 330.021 132.697C330.169 132.763 330.293 132.869 330.378 133.002C330.463 133.136 330.506 133.291 330.5 133.448Z" fill="#263238"/>
<path d="M327.17 150.194C327.166 150.351 327.114 150.504 327.02 150.633C326.926 150.761 326.795 150.86 326.643 150.916C326.491 150.972 326.325 150.983 326.167 150.948C326.008 150.913 325.864 150.833 325.753 150.718C325.642 150.603 325.568 150.459 325.541 150.304C325.515 150.149 325.536 149.989 325.604 149.846C325.671 149.703 325.781 149.582 325.919 149.499C326.057 149.417 326.218 149.375 326.38 149.381C326.596 149.389 326.8 149.478 326.948 149.63C327.096 149.783 327.175 149.985 327.17 150.194Z" fill="#263238"/>
<path d="M323.84 166.941C323.832 167.152 323.738 167.352 323.579 167.497C323.42 167.642 323.208 167.72 322.99 167.715C322.882 167.711 322.776 167.687 322.678 167.644C322.58 167.6 322.492 167.539 322.419 167.462C322.345 167.386 322.288 167.296 322.251 167.198C322.213 167.1 322.196 166.996 322.2 166.892C322.203 166.788 322.228 166.685 322.272 166.59C322.316 166.495 322.379 166.409 322.458 166.338C322.536 166.267 322.628 166.211 322.729 166.174C322.83 166.137 322.937 166.119 323.045 166.123C323.152 166.126 323.258 166.149 323.357 166.192C323.455 166.235 323.543 166.296 323.617 166.372C323.691 166.448 323.749 166.537 323.787 166.635C323.825 166.732 323.843 166.836 323.84 166.941Z" fill="#263238"/>
<path d="M320.5 183.697C320.494 183.854 320.44 184.005 320.345 184.132C320.25 184.259 320.118 184.356 319.966 184.411C319.814 184.466 319.649 184.476 319.491 184.439C319.333 184.403 319.19 184.322 319.08 184.207C318.969 184.093 318.897 183.948 318.871 183.794C318.845 183.639 318.867 183.48 318.935 183.337C319.002 183.194 319.112 183.074 319.25 182.992C319.388 182.909 319.548 182.868 319.71 182.874C319.818 182.876 319.924 182.9 320.023 182.943C320.122 182.986 320.21 183.047 320.284 183.124C320.358 183.201 320.415 183.291 320.452 183.389C320.489 183.488 320.505 183.592 320.5 183.697Z" fill="#263238"/>
<path d="M329.79 117.844C329.677 117.844 329.568 117.806 329.481 117.737C329.393 117.669 329.333 117.573 329.31 117.466C329.295 117.404 329.293 117.339 329.305 117.276C329.316 117.213 329.34 117.153 329.375 117.099C329.41 117.045 329.456 116.998 329.51 116.962C329.564 116.925 329.625 116.899 329.69 116.885L332.17 116.372C332.235 116.358 332.302 116.357 332.368 116.368C332.434 116.379 332.496 116.403 332.552 116.439C332.608 116.474 332.656 116.519 332.694 116.573C332.731 116.626 332.757 116.686 332.77 116.75C332.783 116.812 332.783 116.876 332.771 116.939C332.758 117.001 332.733 117.06 332.697 117.114C332.661 117.167 332.614 117.212 332.56 117.248C332.505 117.283 332.444 117.308 332.38 117.321L329.9 117.834L329.79 117.844Z" fill="#263238"/>
<path d="M338.08 108.928C336.9 111.89 335.899 114.915 335.08 117.989C334.33 121.406 334.29 129.053 334.29 129.053" fill="#263238"/>
<path d="M334.29 129.537C334.157 129.532 334.032 129.478 333.939 129.386C333.846 129.295 333.792 129.172 333.79 129.043C333.79 128.734 333.85 121.299 334.6 117.892C335.414 114.792 336.416 111.74 337.6 108.754C337.62 108.69 337.653 108.631 337.698 108.581C337.743 108.53 337.798 108.489 337.859 108.46C337.921 108.431 337.989 108.414 338.057 108.411C338.126 108.408 338.195 108.419 338.259 108.443C338.323 108.468 338.381 108.504 338.43 108.551C338.479 108.598 338.517 108.654 338.543 108.716C338.568 108.778 338.58 108.844 338.578 108.91C338.576 108.977 338.56 109.042 338.53 109.103C337.352 112.042 336.35 115.044 335.53 118.095C334.8 121.425 334.75 128.976 334.74 129.053C334.741 129.173 334.695 129.29 334.612 129.379C334.528 129.469 334.414 129.525 334.29 129.537Z" fill="#263238"/>
<path d="M151.45 213.085C152.84 191.402 150.29 151.975 192.4 157.202C237.53 162.788 224.62 213.879 224.62 213.879L151.45 213.085Z" fill="#263238"/>
<path d="M180.51 200.056C190.661 200.056 198.89 192.09 198.89 182.264C198.89 172.438 190.661 164.472 180.51 164.472C170.359 164.472 162.13 172.438 162.13 182.264C162.13 192.09 170.359 200.056 180.51 200.056Z" fill="white"/>
<path d="M182.93 164.501C174.22 163.069 164.93 169.273 164 175.565L198.51 178.644C197.29 171.471 189.83 165.643 182.93 164.501Z" fill="#263238"/>
<path d="M194.58 181.819C194.33 186.475 191.71 190.124 188.73 189.969C185.75 189.814 183.53 185.933 183.73 181.257C183.93 176.582 186.6 172.952 189.58 173.107C192.56 173.262 194.82 177.172 194.58 181.819Z" fill="#263238"/>
<path d="M180.51 201.024C176.677 201.024 172.93 199.924 169.743 197.862C166.556 195.801 164.072 192.871 162.606 189.443C161.139 186.015 160.755 182.243 161.503 178.604C162.251 174.965 164.096 171.622 166.807 168.999C169.517 166.375 172.97 164.588 176.73 163.865C180.489 163.141 184.386 163.512 187.927 164.932C191.468 166.352 194.495 168.757 196.624 171.842C198.754 174.927 199.89 178.554 199.89 182.264C199.885 187.238 197.842 192.007 194.208 195.524C190.575 199.041 185.649 201.019 180.51 201.024ZM180.51 165.45C177.073 165.45 173.712 166.437 170.854 168.286C167.995 170.135 165.768 172.763 164.452 175.838C163.137 178.912 162.794 182.296 163.465 185.559C164.136 188.823 165.793 191.821 168.224 194.173C170.656 196.526 173.754 198.127 177.126 198.775C180.498 199.424 183.993 199.089 187.168 197.814C190.344 196.539 193.058 194.381 194.966 191.613C196.875 188.846 197.892 185.592 197.89 182.264C197.885 177.805 196.052 173.529 192.793 170.377C189.535 167.224 185.117 165.452 180.51 165.45Z" fill="#0073C8"/>
<path opacity="0.3" d="M219.49 212.543H219.37C219.306 212.529 219.245 212.503 219.192 212.467C219.138 212.43 219.092 212.383 219.058 212.329C219.023 212.274 219 212.214 218.991 212.151C218.981 212.088 218.984 212.024 219 211.962C219 211.836 222.22 198.71 218.91 185.439C218.878 185.311 218.901 185.175 218.972 185.063C219.043 184.95 219.158 184.87 219.29 184.839C219.423 184.808 219.563 184.83 219.679 184.899C219.795 184.967 219.878 185.078 219.91 185.207C223.28 198.759 220.03 212.059 220 212.185C219.971 212.292 219.904 212.386 219.811 212.452C219.718 212.517 219.605 212.549 219.49 212.543Z" fill="white"/>
<path opacity="0.3" d="M216.7 178.16C216.604 178.159 216.51 178.132 216.429 178.082C216.348 178.033 216.283 177.962 216.24 177.879C214.997 175.22 213.404 172.727 211.5 170.464C211.417 170.365 211.378 170.238 211.391 170.111C211.404 169.984 211.469 169.868 211.57 169.786C211.621 169.745 211.68 169.714 211.743 169.695C211.807 169.676 211.874 169.67 211.94 169.676C212.006 169.683 212.07 169.702 212.128 169.732C212.187 169.763 212.238 169.804 212.28 169.854C214.231 172.183 215.868 174.743 217.15 177.472C217.179 177.529 217.195 177.591 217.198 177.655C217.202 177.718 217.192 177.781 217.169 177.841C217.147 177.9 217.113 177.955 217.068 178.002C217.023 178.048 216.97 178.085 216.91 178.111C216.844 178.141 216.773 178.157 216.7 178.16Z" fill="white"/>
<path d="M57.73 314.803H57.36C56.0339 314.767 54.7769 314.222 53.8655 313.289C52.9541 312.356 52.4629 311.111 52.5 309.827C52.5371 308.543 53.0995 307.327 54.0635 306.444C55.0274 305.562 56.3139 305.087 57.64 305.123H57.73C60.62 305.123 67.57 301.725 82.11 279.538C82.496 278.949 83.009 278.448 83.6139 278.068C84.2188 277.689 84.9012 277.44 85.6145 277.34C86.3278 277.24 87.0551 277.29 87.7464 277.488C88.4378 277.685 89.0769 278.024 89.62 278.483C101.039 287.985 113.492 296.255 126.76 303.148C127.374 303.418 127.925 303.806 128.38 304.288C128.835 304.77 129.185 305.336 129.408 305.952C129.632 306.568 129.724 307.222 129.679 307.873C129.634 308.525 129.454 309.161 129.149 309.743C128.844 310.326 128.42 310.842 127.903 311.262C127.387 311.681 126.787 311.995 126.142 312.185C125.496 312.375 124.818 312.436 124.147 312.365C123.477 312.294 122.828 312.093 122.24 311.773C109.909 305.43 98.2525 297.927 87.44 289.373C75.25 307.136 66.21 314.803 57.73 314.803Z" fill="#263238"/>
<path d="M88.67 277.612H88.24C87.4542 277.502 86.7456 277.094 86.2695 276.479C85.7934 275.864 85.5886 275.091 85.7 274.33C86.41 269.49 85.53 251.457 79.22 237.421C78.9402 236.8 78.8929 236.105 79.0864 235.454C79.28 234.804 79.7022 234.24 80.28 233.858C93.98 224.827 123.16 223.743 124.4 223.704C124.794 223.691 125.187 223.754 125.556 223.888C125.925 224.022 126.263 224.226 126.551 224.486C126.839 224.747 127.071 225.06 127.233 225.407C127.396 225.755 127.487 226.13 127.5 226.511C127.513 226.893 127.449 227.273 127.31 227.63C127.171 227.987 126.961 228.314 126.692 228.593C126.423 228.872 126.099 229.096 125.74 229.254C125.382 229.412 124.994 229.499 124.6 229.512C124.33 229.512 98.82 230.48 85.72 237.45C91.3 251.428 92.57 268.842 91.64 275.144C91.5323 275.831 91.1733 276.458 90.6282 276.911C90.0832 277.364 89.3884 277.613 88.67 277.612Z" fill="#263238"/>
<path d="M93.7103 273.856C91.7103 269.297 82.7103 269.81 77.4403 273.721C74.6203 275.802 70.8003 282.084 70.4403 284.369C70.3202 284.911 70.3382 285.474 70.4926 286.009C70.647 286.544 70.9333 287.034 71.3268 287.438C71.7204 287.841 72.2093 288.147 72.7517 288.327C73.294 288.507 73.8735 288.557 74.4403 288.473C77.8903 288.183 82.6203 283.333 82.6203 283.333C79.4703 286.324 83.5403 288.434 89.6203 284.107C92.9403 281.697 95.9403 278.958 93.7103 273.856Z" fill="#0073C8"/>
<path d="M265.71 214.363C265.664 214.373 265.616 214.373 265.57 214.363C265.506 214.346 265.447 214.317 265.395 214.278C265.343 214.238 265.3 214.189 265.268 214.133C265.236 214.077 265.216 214.015 265.21 213.952C265.203 213.888 265.21 213.824 265.23 213.763C266.56 209.271 268.01 206.532 269.92 205.051C269.621 204.01 269.677 202.903 270.08 201.895C270.546 200.719 271.369 199.706 272.44 198.991C272.149 198.686 271.942 198.315 271.839 197.913C271.736 197.51 271.74 197.088 271.85 196.687C272.212 195.475 272.961 194.404 273.99 193.628C273.619 193.227 273.416 192.706 273.42 192.167C273.42 189.263 278.93 184.887 285.18 184.055C285.313 184.037 285.447 184.071 285.554 184.149C285.661 184.227 285.731 184.343 285.75 184.471C285.769 184.599 285.734 184.73 285.653 184.833C285.572 184.937 285.453 185.005 285.32 185.023C279.38 185.807 274.4 189.969 274.42 192.167C274.418 192.494 274.547 192.81 274.78 193.048C276.125 192.164 277.639 191.55 279.232 191.239C280.825 190.928 282.467 190.928 284.06 191.237C287.13 191.808 288.38 192.438 288.24 193.338C287.96 195.032 281.43 195.39 277.05 194.887C276.265 194.818 275.502 194.604 274.8 194.258C273.857 194.907 273.156 195.834 272.8 196.9C272.714 197.182 272.715 197.482 272.802 197.764C272.889 198.046 273.058 198.297 273.29 198.488C275.15 197.52 277.76 197.171 281.21 197.907C285.74 198.875 285.91 199.407 286.02 199.727C286.055 199.84 286.058 199.96 286.028 200.074C285.998 200.188 285.937 200.292 285.85 200.375C284.9 201.343 277.95 200.888 274.46 200.056C274.039 199.963 273.632 199.816 273.25 199.62C272.217 200.228 271.422 201.151 270.99 202.244C270.701 202.951 270.622 203.722 270.76 204.47C270.938 204.367 271.122 204.273 271.31 204.189C273.38 203.221 275.88 203.395 278.97 204.673C280.97 205.515 281.97 206.27 282.07 207.035C282.074 207.231 282.024 207.425 281.923 207.595C281.823 207.766 281.677 207.907 281.5 208.003C279.97 208.971 274.63 208.836 271.85 207.403C271.211 207.067 270.678 206.568 270.31 205.961C268.68 207.413 267.36 209.997 266.16 214.053C266.124 214.141 266.062 214.217 265.982 214.272C265.902 214.327 265.808 214.359 265.71 214.363ZM271.13 205.331C271.408 205.832 271.833 206.243 272.35 206.512C274.61 207.674 279.05 207.935 280.71 207.287C281.05 207.151 281.1 207.045 281.1 207.045C281.1 207.045 281.05 206.503 278.6 205.486C275.8 204.325 273.6 204.16 271.77 204.983C271.549 205.086 271.336 205.202 271.13 205.331ZM274.47 198.972L274.72 199.039C277.977 199.766 281.328 200.011 284.66 199.765C283.478 199.341 282.26 199.017 281.02 198.797C278.866 198.233 276.589 198.293 274.47 198.972ZM275.73 193.532C276.192 193.692 276.672 193.796 277.16 193.841C282.16 194.412 286.55 193.744 287.16 193.135C286.99 192.989 286.32 192.573 283.84 192.118C281.049 191.579 278.151 192.085 275.73 193.532Z" fill="#263238"/>
<path d="M135.53 313.186C136.19 312.983 135.97 312.363 135.23 312.363H121.69C95.9102 309.721 77.9002 313.263 89.2502 314.096C100.6 314.928 88.4502 314.754 80.1602 317.794C71.8702 320.833 141.81 321.598 148.16 317.794C154 314.29 126.39 316.022 135.53 313.186Z" fill="#263238"/>
<path d="M232.47 317.048L114.67 313.263L109.78 202.698L248.89 205.709L232.47 317.048Z" fill="#0073C8"/>
<path d="M151.45 314.928C151.324 314.929 151.203 314.883 151.11 314.801C151.017 314.718 150.96 314.605 150.95 314.483L141.51 203.434C141.502 203.306 141.545 203.18 141.631 203.083C141.717 202.985 141.839 202.924 141.97 202.911C142.102 202.906 142.231 202.948 142.331 203.031C142.431 203.114 142.495 203.23 142.51 203.357L152 314.406C152.006 314.469 151.998 314.533 151.978 314.594C151.958 314.655 151.925 314.711 151.883 314.76C151.84 314.808 151.788 314.848 151.729 314.877C151.67 314.906 151.606 314.924 151.54 314.928H151.45Z" fill="#263238"/>
<path d="M232.47 317.048L264.13 312.383L274.1 209.571L248.89 205.709L232.47 317.048Z" fill="#0073C8"/>
<path opacity="0.2" d="M232.47 317.048L264.13 312.383L274.1 209.571L248.89 205.709L232.47 317.048Z" fill="black"/>
<path d="M124.73 291.958L121.83 226.26C121.758 224.637 122.032 223.017 122.633 221.5C123.234 219.983 124.15 218.602 125.324 217.441C126.498 216.281 127.906 215.366 129.46 214.753C131.015 214.141 132.682 213.843 134.36 213.879L222.42 215.815C224.154 215.853 225.86 216.246 227.425 216.969C228.991 217.692 230.38 218.728 231.502 220.008C232.624 221.289 233.452 222.785 233.933 224.398C234.413 226.011 234.535 227.705 234.29 229.367L224.53 295.52C224.108 298.417 222.595 301.062 220.283 302.946C217.971 304.831 215.021 305.823 212 305.732L136.61 303.312C133.515 303.22 130.571 301.998 128.367 299.892C126.164 297.787 124.865 294.952 124.73 291.958Z" fill="#263238"/>
<path d="M134.25 234.042L147.87 234.459L147.76 237.856L139.23 237.595L139.15 240.131L147.06 240.373L146.95 243.626L139.04 243.374L138.94 246.52L147.71 246.791L147.59 250.392L133.72 249.966L134.25 234.042Z" fill="white"/>
<path d="M150.4 250.479L150.92 234.555L159.4 234.817C160.616 234.811 161.826 234.98 162.99 235.32C163.816 235.588 164.521 236.12 164.99 236.83C165.338 237.347 165.572 237.928 165.677 238.536C165.783 239.144 165.758 239.767 165.604 240.365C165.45 240.964 165.171 241.525 164.783 242.014C164.395 242.504 163.908 242.91 163.35 243.209C162.782 243.493 162.171 243.689 161.54 243.79C162.005 243.935 162.447 244.144 162.85 244.41C163.142 244.672 163.404 244.964 163.63 245.281C163.888 245.582 164.116 245.906 164.31 246.249L166.62 250.944L160.88 250.76L158.32 245.813C158.117 245.341 157.818 244.913 157.44 244.555C157.081 244.304 156.653 244.162 156.21 244.148H155.76L155.55 250.605L150.4 250.479ZM155.82 241.167L157.96 241.235C158.415 241.208 158.866 241.146 159.31 241.051C159.645 241.001 159.949 240.832 160.16 240.576C160.377 240.318 160.5 239.999 160.51 239.666C160.529 239.445 160.497 239.222 160.416 239.015C160.334 238.807 160.206 238.62 160.04 238.466C159.482 238.117 158.823 237.951 158.16 237.992L155.92 237.924L155.82 241.167Z" fill="white"/>
<path d="M168.28 250.992L168.8 235.068L177.27 235.33C178.486 235.323 179.696 235.493 180.86 235.833C181.687 236.098 182.394 236.631 182.86 237.343C183.368 238.119 183.606 239.031 183.54 239.947C183.543 240.72 183.33 241.478 182.923 242.143C182.517 242.808 181.932 243.354 181.23 243.722C180.661 244.004 180.051 244.2 179.42 244.303C179.882 244.447 180.32 244.656 180.72 244.923C181.019 245.177 181.285 245.467 181.51 245.784C181.766 246.087 181.993 246.411 182.19 246.752L184.5 251.437L178.76 251.263L176.2 246.317C175.996 245.845 175.697 245.417 175.32 245.058C174.963 244.797 174.528 244.654 174.08 244.652H173.64L173.42 251.118L168.28 250.992ZM173.69 241.68L175.84 241.738C176.295 241.721 176.747 241.663 177.19 241.564C177.523 241.516 177.824 241.346 178.03 241.089C178.254 240.836 178.378 240.513 178.38 240.179C178.402 239.959 178.372 239.736 178.292 239.528C178.213 239.32 178.085 239.133 177.92 238.979C177.363 238.621 176.697 238.454 176.03 238.505L173.8 238.437L173.69 241.68Z" fill="white"/>
<path d="M185.32 243.596C185.243 242.485 185.421 241.371 185.841 240.335C186.262 239.298 186.914 238.364 187.752 237.601C188.589 236.837 189.591 236.263 190.685 235.919C191.779 235.575 192.939 235.469 194.08 235.61C195.232 235.574 196.379 235.761 197.455 236.162C198.53 236.563 199.511 237.168 200.34 237.943C201.08 238.768 201.638 239.729 201.982 240.769C202.326 241.809 202.448 242.906 202.34 243.993C202.348 245.575 201.964 247.135 201.22 248.543C200.546 249.695 199.538 250.631 198.32 251.234C196.885 251.898 195.297 252.192 193.71 252.086C192.128 252.099 190.563 251.768 189.13 251.118C187.91 250.477 186.915 249.5 186.27 248.311C185.514 246.853 185.185 245.222 185.32 243.596ZM190.4 243.771C190.25 244.991 190.536 246.224 191.21 247.265C191.525 247.606 191.908 247.882 192.336 248.076C192.764 248.27 193.228 248.379 193.7 248.397C194.172 248.414 194.643 248.339 195.084 248.176C195.526 248.013 195.929 247.766 196.27 247.449C197.011 246.362 197.363 245.07 197.27 243.771C197.404 242.604 197.11 241.429 196.44 240.45C196.137 240.112 195.762 239.841 195.341 239.656C194.92 239.47 194.463 239.375 194 239.376C193.533 239.344 193.065 239.414 192.63 239.581C192.196 239.749 191.806 240.01 191.49 240.344C190.733 241.332 190.348 242.541 190.4 243.771Z" fill="white"/>
<path d="M204.91 252.163L205.43 236.23L213.9 236.491C215.116 236.489 216.325 236.659 217.49 236.995C218.313 237.266 219.018 237.798 219.49 238.505C219.995 239.282 220.233 240.193 220.17 241.109C220.175 241.883 219.963 242.644 219.556 243.31C219.149 243.977 218.563 244.524 217.86 244.894C217.288 245.168 216.679 245.36 216.05 245.465C216.513 245.612 216.951 245.824 217.35 246.094C217.649 246.349 217.914 246.638 218.14 246.955C218.398 247.257 218.625 247.581 218.82 247.923L221.13 252.618L215.39 252.444L212.83 247.488C212.627 247.019 212.327 246.594 211.95 246.239C211.591 245.979 211.158 245.834 210.71 245.823H210.27L210.05 252.289L204.91 252.163ZM210.32 242.841L212.47 242.909C212.925 242.892 213.377 242.834 213.82 242.735C214.151 242.683 214.451 242.514 214.66 242.261C214.896 241.991 215.021 241.646 215.01 241.293C215.032 241.073 215.002 240.852 214.922 240.646C214.842 240.44 214.715 240.254 214.55 240.102C213.992 239.744 213.327 239.577 212.66 239.628L210.43 239.56L210.32 242.841Z" fill="white"/>
<path d="M213 279.219C212.813 279.222 212.626 279.187 212.454 279.115C212.282 279.043 212.127 278.937 212 278.803L203.44 269.732L194.2 277.902C193.944 278.129 193.606 278.249 193.259 278.234C192.912 278.22 192.585 278.073 192.35 277.825L183.79 268.755L174.55 276.925C174.294 277.152 173.956 277.271 173.609 277.257C173.262 277.242 172.935 277.095 172.7 276.847L164.13 267.777L154.9 275.947C154.766 276.065 154.608 276.155 154.436 276.212C154.264 276.268 154.081 276.29 153.9 276.276C153.553 276.256 153.227 276.107 152.99 275.86L144.43 266.799L135.2 274.96C134.943 275.187 134.602 275.307 134.254 275.292C133.905 275.278 133.577 275.13 133.34 274.882C133.224 274.76 133.133 274.616 133.074 274.459C133.016 274.302 132.99 274.135 132.998 273.969C133.006 273.802 133.049 273.639 133.123 273.488C133.197 273.337 133.302 273.203 133.43 273.091L143.63 264.06C143.888 263.832 144.228 263.713 144.577 263.727C144.925 263.742 145.254 263.889 145.49 264.137L154.05 273.208L163.28 265.038C163.542 264.815 163.882 264.697 164.23 264.709C164.578 264.727 164.905 264.876 165.14 265.125L173.7 274.195L182.94 266.025C183.066 265.911 183.215 265.823 183.376 265.766C183.538 265.708 183.71 265.682 183.882 265.689C184.054 265.696 184.223 265.737 184.379 265.807C184.535 265.878 184.675 265.979 184.79 266.102L193.35 275.173L202.59 267.003C202.846 266.776 203.185 266.656 203.532 266.671C203.879 266.685 204.206 266.833 204.44 267.08L214 277.128C214.171 277.313 214.283 277.542 214.321 277.787C214.36 278.032 214.324 278.283 214.218 278.509C214.112 278.734 213.941 278.925 213.724 279.058C213.508 279.191 213.257 279.261 213 279.258V279.219Z" fill="white"/>
<path d="M54.7502 319.401L48.4902 316.506L42.9102 290.206L45.9402 286.982L54.7502 319.401Z" fill="#0073C8"/>
<path d="M54.7499 319.401L63.0599 314.696L55.9399 293.032L45.9399 286.982L54.7499 319.401Z" fill="#0073C8"/>
<path opacity="0.2" d="M54.7499 319.401L63.0599 314.696L55.9399 293.032L45.9399 286.982L54.7499 319.401Z" fill="black"/>
<path d="M191 324.182H190.31C188.984 324.148 187.727 323.605 186.814 322.672C185.902 321.74 185.409 320.495 185.445 319.212C185.481 317.928 186.042 316.711 187.005 315.828C187.968 314.945 189.254 314.468 190.58 314.502C198.28 314.744 214.58 310.166 223.9 301.415C224.463 300.881 225.148 300.483 225.9 300.254C241.69 295.665 247.56 304.929 247.8 305.326L239.2 310.253C239.23 310.315 239.267 310.373 239.31 310.427C239.22 310.301 236.98 307.523 229.86 309.227C218.17 319.546 200.23 324.182 191 324.182Z" fill="#263238"/>
<path d="M190.39 330.61L172.18 329.506L170.75 297.001L195.22 297.882L190.39 330.61Z" fill="#0073C8"/>
<path d="M190.39 330.61L194.65 326.506L197.29 306.245L195.22 297.882L190.39 330.61Z" fill="#0073C8"/>
<path opacity="0.2" d="M190.39 330.61L194.65 326.506L197.29 306.245L195.22 297.882L190.39 330.61Z" fill="black"/>
<path d="M295.91 318.307C295.256 318.306 294.621 318.099 294.1 317.716C283.7 310.069 269.65 296.488 264.26 283.391C264.179 283.201 264.122 283.003 264.09 282.8C261.46 267.661 258.95 235.804 258.84 234.459C258.81 234.077 258.859 233.694 258.982 233.331C259.106 232.967 259.302 232.631 259.56 232.341C260.08 231.756 260.819 231.395 261.615 231.337C262.411 231.279 263.197 231.53 263.802 232.033C264.407 232.537 264.78 233.253 264.84 234.023C264.84 234.342 267.41 266.509 269.97 281.523C275.35 294.262 289.97 307.339 297.75 313.089C298.251 313.457 298.62 313.968 298.804 314.55C298.989 315.132 298.98 315.755 298.779 316.332C298.578 316.908 298.195 317.409 297.683 317.764C297.172 318.118 296.559 318.308 295.93 318.307H295.91Z" fill="#263238"/>
<path d="M309.78 319.768C307.46 319.768 304.83 318.752 301.96 316.748C301.316 316.296 300.883 315.615 300.757 314.855C300.632 314.094 300.823 313.316 301.29 312.692C301.757 312.068 302.461 311.65 303.246 311.528C304.032 311.406 304.836 311.592 305.48 312.044C307.96 313.776 309.31 313.98 309.78 313.98C310.576 313.98 311.339 314.286 311.901 314.83C312.464 315.375 312.78 316.114 312.78 316.884C312.78 317.654 312.464 318.393 311.901 318.937C311.339 319.482 310.576 319.788 309.78 319.788V319.768Z" fill="#263238"/>
<path d="M302.8 316.661C306.01 307.436 319.17 309.256 323.71 310.63C327.588 311.72 331.308 313.281 334.78 315.277C337.23 316.826 337.27 319.43 334 320.911C330 322.73 319.84 321.114 319.84 321.114C325.08 323.331 319.84 326.922 310.63 323.398C307.64 322.256 301.67 320.049 302.8 316.661Z" fill="#0073C8"/>
<path d="M270.86 238.408C269.67 246.249 262.96 252.028 257.5 251.253C252.04 250.479 251.82 243.509 253.01 235.63C254.2 227.75 256.36 222.078 261.82 222.852C267.28 223.627 272.05 230.596 270.86 238.408Z" fill="#263238"/>
<path d="M138.88 207.142C139.333 207.142 139.7 206.786 139.7 206.348C139.7 205.909 139.333 205.554 138.88 205.554C138.427 205.554 138.06 205.909 138.06 206.348C138.06 206.786 138.427 207.142 138.88 207.142Z" fill="#263238"/>
<path d="M147.21 212.059C147.21 212.216 147.162 212.369 147.072 212.5C146.982 212.631 146.854 212.732 146.704 212.792C146.554 212.852 146.389 212.868 146.23 212.838C146.071 212.807 145.925 212.731 145.81 212.62C145.696 212.509 145.618 212.368 145.586 212.214C145.554 212.06 145.571 211.9 145.633 211.755C145.695 211.61 145.8 211.486 145.935 211.399C146.07 211.312 146.228 211.265 146.39 211.265C146.608 211.265 146.816 211.349 146.97 211.498C147.124 211.647 147.21 211.849 147.21 212.059Z" fill="#263238"/>
<path d="M148.13 305.858C148.13 306.015 148.082 306.169 147.992 306.299C147.902 306.43 147.774 306.532 147.624 306.592C147.474 306.652 147.309 306.667 147.15 306.637C146.991 306.606 146.845 306.531 146.73 306.42C146.616 306.309 146.538 306.167 146.506 306.013C146.474 305.859 146.491 305.7 146.553 305.554C146.615 305.409 146.72 305.285 146.855 305.198C146.99 305.111 147.148 305.064 147.31 305.064C147.528 305.064 147.736 305.148 147.89 305.297C148.044 305.446 148.13 305.648 148.13 305.858Z" fill="#263238"/>
<path d="M155.64 311.579C155.64 311.736 155.592 311.89 155.502 312.02C155.412 312.151 155.284 312.252 155.134 312.312C154.984 312.373 154.819 312.388 154.66 312.358C154.501 312.327 154.355 312.251 154.24 312.14C154.125 312.029 154.047 311.888 154.016 311.734C153.984 311.58 154 311.42 154.062 311.275C154.124 311.13 154.23 311.006 154.364 310.919C154.499 310.832 154.658 310.785 154.82 310.785C155.037 310.785 155.246 310.869 155.4 311.018C155.554 311.167 155.64 311.369 155.64 311.579Z" fill="#263238"/>
<path d="M11.51 321.095C10.0704 321.029 8.66425 320.652 7.39553 319.99C6.1268 319.328 5.0279 318.399 4.18003 317.271C4.13846 317.219 4.10824 317.16 4.0912 317.096C4.07417 317.032 4.07069 316.966 4.08096 316.901C4.09123 316.836 4.11504 316.774 4.15095 316.718C4.18686 316.663 4.2341 316.615 4.28981 316.577C4.34552 316.54 4.40853 316.513 4.475 316.5C4.54147 316.487 4.61002 316.487 4.67646 316.5C4.7429 316.514 4.80586 316.54 4.86148 316.578C4.91711 316.615 4.96425 316.663 5.00002 316.719C6.87002 319.333 11 320.717 12.8 319.894C12.9803 319.82 13.141 319.708 13.27 319.565C12.3605 319.178 11.5636 318.579 10.9497 317.823C10.3357 317.067 9.92372 316.176 9.75002 315.228C9.52002 313.999 9.34002 312.325 10.38 312.112C11.82 311.802 13.7 315.161 14.38 317.707C14.5032 318.128 14.5472 318.567 14.51 319.004C15.0868 319.17 15.6935 319.216 16.29 319.139C16.5588 319.119 16.8204 319.045 17.058 318.922C17.2956 318.798 17.504 318.629 17.67 318.423C17.0119 317.942 16.466 317.332 16.0679 316.634C15.6699 315.935 15.4286 315.162 15.36 314.367C14.98 311.715 15.27 311.26 15.57 311.027C15.6672 310.955 15.7832 310.911 15.9051 310.899C16.027 310.887 16.1498 310.908 16.26 310.96C17.33 311.395 18.62 315.151 18.87 317.281C18.9 317.502 18.9 317.727 18.87 317.949C19.3011 318.109 19.7582 318.194 20.22 318.2C21.068 318.232 21.9067 318.02 22.63 317.59C22.49 317.503 22.36 317.407 22.23 317.31C21.23 316.448 20.77 315.074 20.95 313.118C21.09 311.598 21.44 310.766 22.07 310.505C22.2733 310.426 22.4958 310.406 22.7107 310.447C22.9255 310.488 23.1233 310.589 23.28 310.737C23.9551 311.459 24.4595 312.314 24.7583 313.243C25.0571 314.173 25.143 315.154 25.01 316.119C24.9232 316.521 24.7494 316.9 24.5 317.232C26.34 317.542 28.92 317.039 31.15 316.506C31.2157 316.491 31.2838 316.488 31.3505 316.499C31.4172 316.509 31.4812 316.532 31.5387 316.566C31.5963 316.6 31.6464 316.645 31.686 316.698C31.7257 316.751 31.7543 316.811 31.77 316.874C31.7858 316.938 31.7885 317.004 31.7779 317.068C31.7673 317.133 31.7437 317.195 31.7084 317.25C31.6731 317.306 31.6269 317.355 31.5722 317.393C31.5176 317.431 31.4557 317.459 31.39 317.474C28.68 318.123 25.76 318.655 23.7 318.074C22.6945 318.814 21.4631 319.209 20.2 319.197C19.6395 319.19 19.0846 319.089 18.56 318.897C18.3274 319.245 18.0153 319.537 17.6477 319.751C17.2802 319.964 16.867 320.092 16.44 320.127C15.6883 320.22 14.9247 320.157 14.2 319.943C13.9667 320.323 13.6174 320.624 13.2 320.804C12.6637 321.014 12.0881 321.113 11.51 321.095ZM10.65 313.08C10.5117 313.738 10.5391 314.418 10.73 315.064C10.8711 315.838 11.2029 316.568 11.6973 317.191C12.1917 317.815 12.8341 318.314 13.57 318.646C13.556 318.416 13.5158 318.189 13.45 317.968C12.67 315.199 11.17 313.293 10.65 313.08ZM16.22 312.237C16.2265 312.905 16.2834 313.572 16.39 314.231C16.5003 315.412 17.0388 316.516 17.91 317.348C17.6639 315.561 17.0917 313.831 16.22 312.237ZM22.51 311.395C22.51 311.395 22.13 311.579 21.99 313.196C21.85 314.812 22.14 315.925 22.92 316.574C23.1046 316.719 23.306 316.842 23.52 316.942C23.783 316.67 23.969 316.336 24.06 315.974C24.2381 314.45 23.8129 312.918 22.87 311.686C22.66 311.434 22.54 311.395 22.51 311.395Z" fill="#263238"/>
<path d="M157.87 328.413L160.58 323.863L157.87 319.313H154.97L156.61 323.863L154.97 328.413H157.87Z" fill="#263238"/>
<path d="M155.16 326.235C154.826 326.255 154.491 326.209 154.176 326.1C153.86 325.99 153.572 325.819 153.327 325.598C153.083 325.376 152.888 325.108 152.755 324.81C152.622 324.513 152.554 324.192 152.554 323.868C152.554 323.544 152.622 323.223 152.755 322.925C152.888 322.628 153.083 322.36 153.327 322.138C153.572 321.916 153.86 321.745 154.176 321.636C154.491 321.526 154.826 321.48 155.16 321.501L150.56 320.611L149.33 324.212L151.39 327.251L155.16 326.235Z" fill="#263238"/>
<path d="M155.56 319.313H150.13L147.42 323.863L150.13 328.413H155.56L158.27 323.863L155.56 319.313ZM152.85 326.235C152.365 326.237 151.89 326.099 151.486 325.84C151.082 325.58 150.766 325.211 150.579 324.777C150.392 324.344 150.342 323.867 150.436 323.406C150.529 322.946 150.762 322.522 151.104 322.19C151.446 321.857 151.883 321.63 152.358 321.538C152.834 321.445 153.327 321.492 153.775 321.671C154.223 321.85 154.607 322.154 154.876 322.544C155.146 322.935 155.29 323.394 155.29 323.863C155.29 324.49 155.033 325.092 154.576 325.537C154.119 325.981 153.498 326.232 152.85 326.235Z" fill="#0073C8"/>
<path d="M346.89 319.004L344.88 315.625L346.89 312.247H349.04L347.83 315.625L349.04 319.004H346.89Z" fill="#0073C8"/>
<path d="M348.9 317.387C349.15 317.405 349.4 317.373 349.637 317.293C349.873 317.213 350.09 317.086 350.273 316.921C350.457 316.756 350.603 316.557 350.703 316.334C350.803 316.112 350.855 315.873 350.855 315.63C350.855 315.388 350.803 315.148 350.703 314.926C350.603 314.704 350.457 314.504 350.273 314.339C350.09 314.174 349.873 314.048 349.637 313.968C349.4 313.887 349.15 313.855 348.9 313.873L352.32 313.215L353.23 315.887L351.71 318.142L348.9 317.387Z" fill="#0073C8"/>
<path d="M348.61 312.247H352.61L354.61 315.625L352.61 319.004H348.61L346.61 315.625L348.61 312.247ZM350.61 317.387C350.97 317.389 351.323 317.287 351.624 317.095C351.924 316.903 352.159 316.628 352.298 316.306C352.438 315.985 352.475 315.63 352.406 315.288C352.337 314.945 352.164 314.63 351.91 314.383C351.656 314.136 351.332 313.967 350.979 313.898C350.625 313.829 350.259 313.864 349.926 313.997C349.593 314.13 349.308 314.356 349.107 314.646C348.907 314.936 348.8 315.276 348.8 315.625C348.799 315.857 348.845 316.087 348.936 316.301C349.027 316.515 349.161 316.71 349.33 316.874C349.499 317.038 349.7 317.168 349.922 317.256C350.143 317.344 350.38 317.388 350.62 317.387H350.61Z" fill="#263238"/>
<path d="M272 323.495H276.52C277.086 323.493 277.627 323.273 278.027 322.885C278.426 322.497 278.65 321.971 278.65 321.424C278.65 320.876 278.426 320.351 278.027 319.962C277.627 319.574 277.086 319.355 276.52 319.352H272C271.432 319.352 270.888 319.57 270.487 319.959C270.085 320.347 269.86 320.874 269.86 321.424C269.86 321.973 270.085 322.5 270.487 322.888C270.888 323.277 271.432 323.495 272 323.495Z" fill="#263238"/>
<path d="M264.73 319.584C265.15 318.846 265.783 318.242 266.553 317.848C267.322 317.454 268.194 317.287 269.061 317.367C269.928 317.447 270.751 317.77 271.43 318.298C272.109 318.825 272.614 319.533 272.882 320.335C273.15 321.137 273.17 321.997 272.939 322.81C272.708 323.622 272.236 324.352 271.582 324.908C270.928 325.464 270.12 325.823 269.258 325.94C268.396 326.057 267.517 325.927 266.73 325.567C265.649 325.027 264.832 324.095 264.457 322.974C264.082 321.854 264.18 320.635 264.73 319.584Z" fill="#0073C8"/>
<path d="M265.95 325.566L267.189 326.131L271.496 317.288L270.257 316.722L265.95 325.566Z" fill="#263238"/>
</svg>
