<svg width="361" height="361" viewBox="0 0 361 361" fill="none" xmlns="http://www.w3.org/2000/svg">
<g clip-path="url(#clip0_524_2)">
<mask id="mask0_524_2" style="mask-type:luminance" maskUnits="userSpaceOnUse" x="0" y="108" width="361" height="254">
<path d="M0.454346 108.3H360.546V288.8C360.546 328.674 328.302 361 288.528 361H72.4727C32.698 361 0.454346 328.674 0.454346 288.8V108.3Z" fill="white"/>
</mask>
<g mask="url(#mask0_524_2)">
<path d="M396.555 288.8C396.555 348.612 348.189 397.1 288.528 397.1H72.4726C12.8106 397.1 -35.5549 348.612 -35.5549 288.8H36.4634C36.4634 308.738 52.5852 324.9 72.4726 324.9H288.528C308.415 324.9 324.537 308.738 324.537 288.8H396.555ZM72.4726 397.1C12.8106 397.1 -35.5549 348.612 -35.5549 288.8V108.3H36.4634V288.8C36.4634 308.738 52.5852 324.9 72.4726 324.9V397.1ZM396.555 108.3V288.8C396.555 348.612 348.189 397.1 288.528 397.1V324.9C308.415 324.9 324.537 308.738 324.537 288.8V108.3H396.555Z" fill="white"/>
</g>
<path d="M121.085 167.252C121.085 182.205 108.994 194.327 94.0782 194.327C79.1626 194.327 67.0713 182.205 67.0713 167.252C67.0713 152.299 79.1626 140.177 94.0782 140.177C108.994 140.177 121.085 152.299 121.085 167.252Z" fill="white"/>
<path d="M180.5 194.327C195.416 194.327 207.507 182.205 207.507 167.252C207.507 152.299 195.416 140.177 180.5 140.177C165.585 140.177 153.493 152.299 153.493 167.252C153.493 182.205 165.585 194.327 180.5 194.327Z" fill="white"/>
<path d="M266.922 194.327C281.837 194.327 293.929 182.205 293.929 167.252C293.929 152.299 281.837 140.177 266.922 140.177C252.006 140.177 239.915 152.299 239.915 167.252C239.915 182.205 252.006 194.327 266.922 194.327Z" fill="white"/>
<path d="M121.085 259.307C121.085 274.259 108.994 286.382 94.0782 286.382C79.1626 286.382 67.0713 274.259 67.0713 259.307C67.0713 244.354 79.1626 232.232 94.0782 232.232C108.994 232.232 121.085 244.354 121.085 259.307Z" fill="white"/>
<path d="M180.5 286.382C195.416 286.382 207.507 274.26 207.507 259.307C207.507 244.354 195.416 232.232 180.5 232.232C165.585 232.232 153.493 244.354 153.493 259.307C153.493 274.26 165.585 286.382 180.5 286.382Z" fill="white"/>
<path d="M266.922 286.382C281.837 286.382 293.929 274.26 293.929 259.307C293.929 244.354 281.837 232.232 266.922 232.232C252.006 232.232 239.915 244.354 239.915 259.307C239.915 274.26 252.006 286.382 266.922 286.382Z" fill="white"/>
<g filter="url(#filter0_d_524_2)">
<path d="M0.454346 72.2C0.454346 32.325 32.698 0 72.4727 0H288.528C328.302 0 360.546 32.325 360.546 72.2V108.3H0.454346V72.2Z" fill="#FFC107"/>
</g>
</g>
<defs>
<filter id="filter0_d_524_2" x="-3.54565" y="0" width="368.092" height="116.3" filterUnits="userSpaceOnUse" color-interpolation-filters="sRGB">
<feFlood flood-opacity="0" result="BackgroundImageFix"/>
<feColorMatrix in="SourceAlpha" type="matrix" values="0 0 0 0 0 0 0 0 0 0 0 0 0 0 0 0 0 0 127 0" result="hardAlpha"/>
<feOffset dy="4"/>
<feGaussianBlur stdDeviation="2"/>
<feComposite in2="hardAlpha" operator="out"/>
<feColorMatrix type="matrix" values="0 0 0 0 0 0 0 0 0 0 0 0 0 0 0 0 0 0 0.25 0"/>
<feBlend mode="normal" in2="BackgroundImageFix" result="effect1_dropShadow_524_2"/>
<feBlend mode="normal" in="SourceGraphic" in2="effect1_dropShadow_524_2" result="shape"/>
</filter>
<clipPath id="clip0_524_2">
<rect width="361" height="361" fill="white"/>
</clipPath>
</defs>
</svg>
