<svg width="1344" height="1100" viewBox="0 0 1344 1100" fill="none" xmlns="http://www.w3.org/2000/svg">
<g clip-path="url(#clip0_1_4)">
<path d="M583.615 7.41698C594.271 -2.563 610.8 -2.42629 621.455 7.55369C659.159 42.9621 694.54 81.1047 727.599 122.392C742.626 102.705 759.702 81.2415 778.144 63.7423C788.936 53.6256 805.602 53.6256 816.394 63.879C863.66 108.994 903.686 168.6 931.827 225.199C959.558 280.978 978 337.987 978 378.18C978 552.624 841.666 700 672 700C500.421 700 366 552.488 366 378.043C366 325.546 390.316 261.428 428.02 197.994C466.133 133.602 519.956 66.4766 583.615 7.41698ZM674.322 568.756C708.884 568.756 739.484 559.187 768.308 540.047C825.82 499.854 841.256 419.467 806.695 356.306C802.87 348.65 799.045 340.994 793.307 333.338L724.184 413.725C724.184 413.725 612.986 272.091 605.199 262.522C547.824 333.338 519 373.532 519 419.467C519 513.251 588.123 568.756 674.322 568.756Z" fill="url(#paint0_linear_1_4)"/>
<path d="M160 722C192 722 215.833 729.5 231.5 744.5C247.167 759.5 255 781.667 255 811C255 826.667 251.167 840.5 243.5 852.5C235.833 864.167 224.5 873.333 209.5 880C194.5 886.333 176 889.5 154 889.5L156 867C166.333 867 178.167 868.5 191.5 871.5C204.833 874.167 217.667 879.167 230 886.5C242.667 893.5 253 903.5 261 916.5C269.333 929.167 273.5 945.5 273.5 965.5C273.5 987.5 269.833 1005.5 262.5 1019.5C255.5 1033.5 246.167 1044.33 234.5 1052C222.833 1059.67 210.333 1065 197 1068C183.667 1070.67 170.833 1072 158.5 1072H34C25.3333 1072 18 1069.17 12 1063.5C6.33334 1057.5 3.5 1050.17 3.5 1041.5V752.5C3.5 743.833 6.33334 736.667 12 731C18 725 25.3333 722 34 722H160ZM151 781H62L68.5 773V863.5L62.5 859H152.5C162.167 859 170.833 855.833 178.5 849.5C186.167 843.167 190 834 190 822C190 807.667 186.333 797.333 179 791C172 784.333 162.667 781 151 781ZM155 918H64L68.5 914V1019.5L63.5 1014.5H158.5C173.833 1014.5 186 1010.5 195 1002.5C204 994.167 208.5 981.833 208.5 965.5C208.5 950.5 205.5 939.667 199.5 933C193.5 926.333 186.333 922.167 178 920.5C169.667 918.833 162 918 155 918ZM389.672 1041.5C389.672 1050.17 386.672 1057.5 380.672 1063.5C375.005 1069.17 367.839 1072 359.172 1072C350.839 1072 343.839 1069.17 338.172 1063.5C332.505 1057.5 329.672 1050.17 329.672 1041.5V732.5C329.672 723.833 332.505 716.667 338.172 711C344.172 705 351.505 702 360.172 702C368.839 702 375.839 705 381.172 711C386.839 716.667 389.672 723.833 389.672 732.5V1041.5ZM678.438 799.5C687.104 799.5 694.271 802.333 699.938 808C705.604 813.667 708.438 821 708.438 830V1041.5C708.438 1050.17 705.604 1057.5 699.938 1063.5C694.271 1069.17 687.104 1072 678.438 1072C669.771 1072 662.604 1069.17 656.938 1063.5C651.271 1057.5 648.438 1050.17 648.438 1041.5V1017L659.438 1021.5C659.438 1025.83 657.104 1031.17 652.438 1037.5C647.771 1043.5 641.438 1049.5 633.438 1055.5C625.438 1061.5 615.938 1066.67 604.938 1071C594.271 1075 582.604 1077 569.938 1077C546.938 1077 526.104 1071.17 507.438 1059.5C488.771 1047.5 473.938 1031.17 462.938 1010.5C452.271 989.5 446.938 965.5 446.938 938.5C446.938 911.167 452.271 887.167 462.938 866.5C473.938 845.5 488.604 829.167 506.938 817.5C525.271 805.5 545.604 799.5 567.938 799.5C582.271 799.5 595.438 801.667 607.438 806C619.438 810.333 629.771 815.833 638.438 822.5C647.438 829.167 654.271 836 658.938 843C663.938 849.667 666.438 855.333 666.438 860L648.438 866.5V830C648.438 821.333 651.271 814.167 656.938 808.5C662.604 802.5 669.771 799.5 678.438 799.5ZM577.438 1022C592.104 1022 604.938 1018.33 615.938 1011C626.938 1003.67 635.438 993.667 641.438 981C647.771 968.333 650.938 954.167 650.938 938.5C650.938 922.5 647.771 908.167 641.438 895.5C635.438 882.833 626.938 872.833 615.938 865.5C604.938 858.167 592.104 854.5 577.438 854.5C563.104 854.5 550.438 858.167 539.438 865.5C528.438 872.833 519.771 882.833 513.438 895.5C507.438 908.167 504.438 922.5 504.438 938.5C504.438 954.167 507.438 968.333 513.438 981C519.771 993.667 528.438 1003.67 539.438 1011C550.438 1018.33 563.104 1022 577.438 1022ZM757.902 1030.5C754.569 1025.83 753.069 1019.83 753.402 1012.5C753.736 1005.17 758.069 998.833 766.402 993.5C771.736 990.167 777.402 988.833 783.402 989.5C789.402 989.833 795.236 992.833 800.902 998.5C810.569 1008.17 820.736 1015.67 831.402 1021C842.069 1026.33 855.402 1029 871.402 1029C876.402 1028.67 881.902 1028 887.902 1027C893.902 1025.67 899.069 1023 903.402 1019C908.069 1014.67 910.402 1008.17 910.402 999.5C910.402 992.167 907.902 986.333 902.902 982C897.902 977.667 891.236 974 882.902 971C874.902 968 865.902 965.167 855.902 962.5C845.569 959.5 834.902 956.167 823.902 952.5C813.236 948.833 803.402 944.167 794.402 938.5C785.402 932.5 778.069 924.667 772.402 915C766.736 905.333 763.902 893.167 763.902 878.5C763.902 861.833 768.569 847.667 777.902 836C787.236 824.333 799.236 815.333 813.902 809C828.902 802.667 844.569 799.5 860.902 799.5C871.236 799.5 882.069 800.833 893.402 803.5C904.736 805.833 915.569 809.833 925.902 815.5C936.236 820.833 944.902 828 951.902 837C955.569 842 957.736 848 958.402 855C959.069 862 955.902 868.333 948.902 874C943.902 878 938.069 879.833 931.402 879.5C924.736 878.833 919.236 876.5 914.902 872.5C909.236 865.167 901.569 859.333 891.902 855C882.569 850.667 871.736 848.5 859.402 848.5C854.402 848.5 848.902 849.167 842.902 850.5C837.236 851.5 832.236 854 827.902 858C823.569 861.667 821.402 867.667 821.402 876C821.402 883.667 823.902 889.833 828.902 894.5C833.902 898.833 840.569 902.5 848.902 905.5C857.569 908.167 866.736 910.833 876.402 913.5C886.402 916.167 896.569 919.333 906.902 923C917.236 926.667 926.736 931.5 935.402 937.5C944.069 943.5 951.069 951.333 956.402 961C961.736 970.333 964.402 982.333 964.402 997C964.402 1014 959.402 1028.5 949.402 1040.5C939.402 1052.5 926.902 1061.67 911.902 1068C896.902 1074 881.569 1077 865.902 1077C846.236 1077 826.569 1073.67 806.902 1067C787.236 1060 770.902 1047.83 757.902 1030.5ZM1071.11 1041.5C1071.11 1050.17 1068.28 1057.5 1062.61 1063.5C1056.95 1069.17 1049.78 1072 1041.11 1072C1032.45 1072 1025.28 1069.17 1019.61 1063.5C1013.95 1057.5 1011.11 1050.17 1011.11 1041.5V835C1011.11 826.333 1013.95 819.167 1019.61 813.5C1025.28 807.5 1032.45 804.5 1041.11 804.5C1049.78 804.5 1056.95 807.5 1062.61 813.5C1068.28 819.167 1071.11 826.333 1071.11 835V1041.5ZM1040.61 772C1029.28 772 1021.28 770.167 1016.61 766.5C1011.95 762.833 1009.61 756.333 1009.61 747V737.5C1009.61 727.833 1012.11 721.333 1017.11 718C1022.45 714.333 1030.45 712.5 1041.11 712.5C1052.78 712.5 1060.95 714.333 1065.61 718C1070.28 721.667 1072.61 728.167 1072.61 737.5V747C1072.61 756.667 1070.11 763.333 1065.11 767C1060.11 770.333 1051.95 772 1040.61 772ZM1138.28 804.5C1147.94 804.5 1156.11 808.667 1162.78 817L1329.78 1024.5C1334.11 1029.83 1336.28 1035.83 1336.28 1042.5C1336.28 1050.83 1333.11 1058 1326.78 1064C1320.44 1070 1313.44 1073 1305.78 1073C1296.11 1073 1287.94 1068.67 1281.28 1060L1114.28 852.5C1109.94 847.167 1107.78 841.167 1107.78 834.5C1107.78 825.833 1110.78 818.667 1116.78 813C1123.11 807.333 1130.28 804.5 1138.28 804.5ZM1138.78 1072.5C1132.11 1072.5 1125.44 1070 1118.78 1065C1112.44 1059.67 1109.28 1053.33 1109.28 1046C1109.28 1039.33 1111.78 1033 1116.78 1027L1193.28 933.5L1223.28 983.5L1162.78 1060C1156.44 1068.33 1148.44 1072.5 1138.78 1072.5ZM1305.28 804.5C1313.28 804.5 1319.94 807.333 1325.28 813C1330.94 818.333 1333.78 824.5 1333.78 831.5C1333.78 834.833 1333.28 838.167 1332.28 841.5C1331.28 844.833 1329.44 848 1326.78 851L1251.28 943L1219.78 899.5L1281.28 818C1287.94 809 1295.94 804.5 1305.28 804.5Z" fill="url(#paint1_linear_1_4)"/>
</g>
<defs>
<linearGradient id="paint0_linear_1_4" x1="1018.98" y1="0.0345603" x2="336.093" y2="699.476" gradientUnits="userSpaceOnUse">
<stop stop-color="#002994"/>
<stop offset="1" stop-color="#00C2FF"/>
</linearGradient>
<linearGradient id="paint1_linear_1_4" x1="1344" y1="572" x2="-34" y2="1197" gradientUnits="userSpaceOnUse">
<stop stop-color="#002994"/>
<stop offset="1" stop-color="#00C2FF"/>
</linearGradient>
<clipPath id="clip0_1_4">
<rect width="1344" height="1100" fill="white"/>
</clipPath>
</defs>
</svg>
