<svg width="448" height="512" viewBox="0 0 448 512" fill="none" xmlns="http://www.w3.org/2000/svg">
<g clip-path="url(#clip0_1_4)">
<path d="M159.3 5.4C167.1 -1.9 179.2 -1.8 187 5.5C214.6 31.4 240.5 59.3 264.7 89.5C275.7 75.1 288.2 59.4 301.7 46.6C309.6 39.2 321.8 39.2 329.7 46.7C364.3 79.7 393.6 123.3 414.2 164.7C434.5 205.5 448 247.2 448 276.6C448 404.2 348.2 512 224 512C98.4 512 0 404.1 0 276.5C0 238.1 17.8 191.2 45.4 144.8C73.3 97.7 112.7 48.6 159.3 5.4ZM225.7 416C251 416 273.4 409 294.5 395C336.6 365.6 347.9 306.8 322.6 260.6C319.8 255 317 249.4 312.8 243.8L262.2 302.6C262.2 302.6 180.8 199 175.1 192C133.1 243.8 112 273.2 112 306.8C112 375.4 162.6 416 225.7 416Z" fill="url(#paint0_linear_1_4)"/>
</g>
<defs>
<linearGradient id="paint0_linear_1_4" x1="478" y1="2.63328e-05" x2="-21.5" y2="512" gradientUnits="userSpaceOnUse">
<stop stop-color="#002994"/>
<stop offset="1" stop-color="#00C2FF"/>
</linearGradient>
<clipPath id="clip0_1_4">
<rect width="448" height="512" fill="white"/>
</clipPath>
</defs>
</svg>
