<svg width="109" height="114" viewBox="0 0 109 114" fill="none" xmlns="http://www.w3.org/2000/svg">
<path d="M97.3 5H11.7C5.79055 5 1 9.83532 1 15.8V102.2C1 108.165 5.79055 113 11.7 113H97.3C103.209 113 108 108.165 108 102.2V15.8C108 9.83532 103.209 5 97.3 5Z" fill="#D8D8D8" stroke="black"/>
<path d="M11.7 5H97.3C100.138 5 102.859 6.18 104.866 8.2804C106.873 10.3808 108 13.2296 108 16.2V33H1V16.2C1 13.2296 2.12732 10.3808 4.13396 8.2804C6.1406 6.18 8.86218 5 11.7 5Z" fill="#FFC107" stroke="black"/>
<path d="M30 1H28V11H30V1Z" fill="#D8D8D8" stroke="black"/>
<path d="M83 1H81V11H83V1Z" fill="#D8D8D8" stroke="black"/>
<path d="M56 1H54V11H56V1Z" fill="#D8D8D8" stroke="black"/>
<path d="M76 105.697C76 108.198 75.8399 110.64 75.5344 113H29.4656C29.1601 110.64 29 108.198 29 105.697C29 85.4298 39.5212 69 52.5 69C65.4788 69 76 85.4298 76 105.697Z" fill="black" fill-opacity="0.22" stroke="black"/>
<path d="M67 110.173C67 91.8518 76.7533 77 88.7847 77C89.6284 77 90.4609 77.0729 91.2797 77.2151C99.0712 79.3594 105.421 87.8138 107.965 98.9778V94.9679C107.977 95.0027 107.988 95.0379 108 95.0727V99.1304C107.988 99.0794 107.977 99.0288 107.965 98.9778V102.226C107.965 108.177 103.133 113 97.1724 113H67.0781C67.0263 112.068 67 111.125 67 110.173Z" fill="black" fill-opacity="0.22"/>
<path d="M107.965 98.9778C105.421 87.8138 99.0712 79.3594 91.2797 77.2151C90.4609 77.0729 89.6284 77 88.7847 77C76.7533 77 67 91.8518 67 110.173C67 111.125 67.0263 112.068 67.0781 113H97.1724C103.133 113 107.965 108.177 107.965 102.226V98.9778ZM107.965 98.9778V94.9679C107.977 95.0027 107.988 95.0379 108 95.0727V99.1304C107.988 99.0794 107.977 99.0288 107.965 98.9778Z" stroke="black"/>
<path d="M16.5257 85C27.215 85 35.8932 97.5096 36 113H10.6383C5.21507 112.4 1 107.868 1 102.366V96.214C1.15283 95.9197 1.30928 95.6297 1.46935 95.3446C5.04124 89.0288 10.4597 85 16.5257 85Z" fill="black" fill-opacity="0.22" stroke="black"/>
<path d="M15.5 83C21.299 83 26 78.0751 26 72C26 65.9249 21.299 61 15.5 61C9.70101 61 5 65.9249 5 72C5 78.0751 9.70101 83 15.5 83Z" fill="black" fill-opacity="0.22" stroke="black"/>
<path d="M88.5 72C94.299 72 99 67.299 99 61.5C99 55.701 94.299 51 88.5 51C82.701 51 78 55.701 78 61.5C78 67.299 82.701 72 88.5 72Z" fill="black" fill-opacity="0.22" stroke="black"/>
<path d="M52.5 64C58.299 64 63 59.299 63 53.5C63 47.701 58.299 43 52.5 43C46.701 43 42 47.701 42 53.5C42 59.299 46.701 64 52.5 64Z" fill="black" fill-opacity="0.22" stroke="black"/>
</svg>
